<svg id="Capa_1" data-name="Capa 1" xmlns="http://www.w3.org/2000/svg" viewBox="0 0 989.34 314.34"><defs><style>.cls-1{fill:#00c851;}.cls-2{opacity:0.55;}.cls-3{fill:#230f01;}.cls-4{fill:#ea9f60;}.cls-5{fill:#c47947;}.cls-6{fill:#b2462d;}.cls-7{fill:#fff;}.cls-8{fill:#c66344;}.cls-9{fill:#e86c46;}.cls-10{fill:#3f1a01;}.cls-11{fill:#3f1e0c;}.cls-12{fill:#543020;}.cls-13{fill:#333;}.cls-14{fill:#212121;}.cls-15{fill:#ededed;}.cls-16{fill:#a3a3a3;}.cls-17{fill:#e25c52;}.cls-18{fill:#fcc397;}.cls-19{fill:#663412;}.cls-20{fill:#ea9f6c;}.cls-21{fill:#7b9368;}.cls-22{fill:#843e09;}.cls-23{fill:#ba672f;}.cls-24{fill:#ffb18a;}.cls-25{fill:#012e43;}.cls-26{fill:#fc7365;}.cls-27{fill:#ef4141;}.cls-28{fill:#012a3a;}.cls-29{fill:#024b68;}.cls-30{fill:#e5e5e5;}.cls-31{fill:#515151;}.cls-32{fill:#5fa6b2;}.cls-33{fill:#ea8c63;}.cls-34{fill:#d87350;}.cls-35{fill:#007e33;}</style></defs><title>background-image</title><path class="cls-1" d="M989.61,390.23c-3.9-3.89-2.58-7.16,2.92-7.27l42.44-.81a9.57,9.57,0,0,1,9.81,9.8l-.82,42.44c-.1,5.5-3.37,6.82-7.26,2.93Z" transform="translate(-55.44 -153.48)"/><path class="cls-1" d="M731.67,274.2c-6.26-6.5-10.85-11.29-12.08-12.63-57.34-62.6-82-85.66-124.38-100.21-52.47-18-117.47-1.48-152.21,34.06a19.85,19.85,0,1,0,26.61,29.43C501,194.34,554,184.6,593.6,203.24c27.9,13.13,44.48,27.89,99.4,87.91.09.11,4.13,4.31,10.18,10.61A37.55,37.55,0,0,1,731.67,274.2Z" transform="translate(-55.44 -153.48)"/><path class="cls-1" d="M1034.93,389.53a20,20,0,0,0-22-3.93c-9.32,4.19-23.62,28.95-71.59,36.74-52.6,8.53-99.3-30.41-154.12-90.39-1.14-1.24-5.42-5.72-11.33-11.85a37.54,37.54,0,0,1-28.69,27.48L761,361.89C816.76,420,864.86,469.19,944.29,462c47.36-4.31,90.1-39,95-50.47A20,20,0,0,0,1034.93,389.53Z" transform="translate(-55.44 -153.48)"/><g class="cls-2"><circle class="cls-1" cx="547.74" cy="310.8" r="74.95" transform="translate(-73.69 -118.85) rotate(-3.56)"/></g><path class="cls-3" d="M572.41,263.66c0,29.63,14.21,52.61-24,53.12-37.82-8.06-24-22.42-24-52-3.89-30.48,10-38.93,24-38.93S575,232.84,572.41,263.66Z" transform="translate(-55.44 -153.48)"/><path class="cls-4" d="M575.85,293.39l-12.22-1.85c-3.73-1.28-7.19-5.24-7.19-7.63,0-.07,0-6.64,0-6.64a58.92,58.92,0,0,1-8.74,3.41,47.5,47.5,0,0,1-7.77-3.36s0,6.46,0,6.53c0,2.44-4.1,6.5-8.06,7.7l-12.17,1.84c-5.14,0-9.3,5.12-9.3,11.44s4.16,11.44,9.3,11.44h56.21c5.14,0,9.3-5.12,9.3-11.44S581,293.39,575.85,293.39Z" transform="translate(-55.44 -153.48)"/><path class="cls-5" d="M539.9,274.77V279a45.85,45.85,0,0,0,6.84,3.93,2.26,2.26,0,0,0,1.8.06,53.31,53.31,0,0,0,7.87-4.06v-4.17Z" transform="translate(-55.44 -153.48)"/><path class="cls-4" d="M567.45,253.76a2.26,2.26,0,0,0-1.68.15c.59-5.66.78-11.68-.08-13a22.09,22.09,0,0,0-18-10.13h0c-7,.27-12.62,4.18-16.7,10.58-.85,1.34-1.92,6.8-1.34,12.41a2,2,0,0,0-1.2,0c-1.67.56-2.25,3.29-1.31,6.09.78,2.3,2.34,3.94,3.8,4.13.23,1.59.39,2.59.39,2.59,3.43,9.09,12.47,13.56,15.42,14.8a2.34,2.34,0,0,0,1.8,0c2.85-1.18,12-5.65,15.51-14.83,0,0,.15-1,.38-2.58,1.57.11,3.39-1.6,4.25-4.13C569.69,257.06,569.12,254.33,567.45,253.76Z" transform="translate(-55.44 -153.48)"/><path class="cls-5" d="M548.88,264.92h-2.27a1.79,1.79,0,0,1-1.65-1.26,2.08,2.08,0,0,0-.12.71c0,1.09,1.32,1.44,2.3,1.44h1.2c1,0,2.31-.35,2.31-1.44a2.35,2.35,0,0,0-.12-.71A1.79,1.79,0,0,1,548.88,264.92Z" transform="translate(-55.44 -153.48)"/><path class="cls-5" d="M527.35,255.81c0-.23.43-1.24,1-1.07.84.27,1.38,1.91,1.73,3.55s.19,2.84,0,2.4a23.48,23.48,0,0,0-1.51-4.48C527.89,255,527.49,257.58,527.35,255.81Z" transform="translate(-55.44 -153.48)"/><path class="cls-5" d="M568.61,255.81c0-.23-.43-1.24-1-1.07-.84.27-1.37,1.91-1.73,3.55s-.19,2.84,0,2.4a24.24,24.24,0,0,1,1.51-4.48C568.07,255,568.47,257.58,568.61,255.81Z" transform="translate(-55.44 -153.48)"/><path class="cls-6" d="M553.82,269.26c-.08-.1-.43,0-.83,0a25,25,0,0,1-5.28.45h-.09a25,25,0,0,1-5.28-.45c-.4-.06-.75-.13-.83,0s-.09.32.12.63l.9,1.23s1.78,3.35,5.14,3.41,5.13-3.41,5.13-3.41l.9-1.23C553.91,269.58,553.93,269.39,553.82,269.26Z" transform="translate(-55.44 -153.48)"/><path class="cls-7" d="M551,271.34c.84-.27,1.11-1,1.32-1.95a29.06,29.06,0,0,1-5.1.29,42.66,42.66,0,0,1-4.42-.31c.22,1.07.41,1.19,1.3,1.64-.7,0-.83.7-.74,1.48a7.24,7.24,0,0,0,4.44,1.77c2.22-.07,3.36-.77,4.1-1.82C551.74,272,551.62,271.36,551,271.34Z" transform="translate(-55.44 -153.48)"/><path class="cls-8" d="M542.34,269.29s.66,1,5.4,1c4.54,0,5.25-1,5.25-1a1.7,1.7,0,0,1-.65,0,18.21,18.21,0,0,0-3.38-.82c-.42,0-.86.49-1.22.49s-.84-.48-1.36-.46c-1.43.08-3.18.82-3.81.79A.47.47,0,0,0,542.34,269.29Z" transform="translate(-55.44 -153.48)"/><path class="cls-9" d="M541.81,270.13s1.27,4.44,5.83,4.48c4.13,0,5.88-4.5,5.88-4.5a9,9,0,0,1-5.83,2.35A8,8,0,0,1,541.81,270.13Z" transform="translate(-55.44 -153.48)"/><path class="cls-10" d="M543.19,251a19.27,19.27,0,0,0-5.86-2.07c-.81-.08-2.87,1.48-3.78,2.25.81-.2,3.23-1.34,3.85-1.18a26.21,26.21,0,0,1,5.23,2A.58.58,0,1,0,543.19,251Z" transform="translate(-55.44 -153.48)"/><path class="cls-10" d="M552.75,251a19.16,19.16,0,0,1,5.86-2.07c.81-.08,2.87,1.48,3.78,2.25-.82-.2-3.23-1.34-3.85-1.18a26.62,26.62,0,0,0-5.24,2A.58.58,0,1,1,552.75,251Z" transform="translate(-55.44 -153.48)"/><path class="cls-7" d="M543.48,256.38c-2.23.61-3.15,1-4.34,1-1.73,0-3.08-1.05-3-2.14s1.44-1.72,3.16-1.62S543,255.56,543.48,256.38Z" transform="translate(-55.44 -153.48)"/><path class="cls-11" d="M541,255.52a1.83,1.83,0,1,1-3.64-.22c.06-1.08.93-1.53,1.93-1.47S541.06,254.44,541,255.52Z" transform="translate(-55.44 -153.48)"/><path d="M540.48,255.29a1.24,1.24,0,1,1-2.46-.15,1.24,1.24,0,1,1,2.46.15Z" transform="translate(-55.44 -153.48)"/><path class="cls-7" d="M540.69,255.13a.54.54,0,0,1-.61.43.55.55,0,0,1-.56-.5.54.54,0,0,1,.62-.43A.53.53,0,0,1,540.69,255.13Z" transform="translate(-55.44 -153.48)"/><path d="M535,255.15c0,.6,1.48,2.14,4.06,2.21a3,3,0,0,1-2.82-1.76c.26-1.15,2.75-1.71,4.37-1.11,2.33.88,2.87,1.9,2.87,1.9a5.16,5.16,0,0,0-5.58-2.92C536.27,253.74,536,254.61,535,255.15Z" transform="translate(-55.44 -153.48)"/><path class="cls-7" d="M552.46,256.38c2.22.61,3.15,1,4.34,1,1.72,0,3.07-1.05,3-2.14s-1.44-1.72-3.17-1.62S552.94,255.56,552.46,256.38Z" transform="translate(-55.44 -153.48)"/><path class="cls-11" d="M554.94,255.52a1.83,1.83,0,1,0,3.64-.22c-.07-1.08-.93-1.53-1.94-1.47S554.88,254.44,554.94,255.52Z" transform="translate(-55.44 -153.48)"/><path d="M555.46,255.29a1.24,1.24,0,1,0,1.15-1.39A1.27,1.27,0,0,0,555.46,255.29Z" transform="translate(-55.44 -153.48)"/><path class="cls-7" d="M557.05,255.13a.54.54,0,0,0,.61.43.54.54,0,0,0,.56-.5.53.53,0,0,0-.61-.43C557.28,254.65,557,254.87,557.05,255.13Z" transform="translate(-55.44 -153.48)"/><path d="M560.94,255.15c0,.6-1.49,2.14-4.06,2.21a3,3,0,0,0,2.82-1.76c-.26-1.15-2.75-1.71-4.37-1.11-2.33.88-2.87,1.9-2.87,1.9a5.16,5.16,0,0,1,5.58-2.92C559.66,253.74,559.93,254.61,560.94,255.15Z" transform="translate(-55.44 -153.48)"/><path class="cls-12" d="M572.77,256.88S569,276.62,578,291.65C572.19,279,572.77,256.88,572.77,256.88Z" transform="translate(-55.44 -153.48)"/><path class="cls-12" d="M572,265s-3.81,19.75,5.25,34.78C573.68,287.34,572,265,572,265Z" transform="translate(-55.44 -153.48)"/><path class="cls-12" d="M523.77,256.88s3.81,19.74-5.25,34.77C524.35,279,523.77,256.88,523.77,256.88Z" transform="translate(-55.44 -153.48)"/><path class="cls-12" d="M524.51,265s3.81,19.75-5.25,34.78C522.86,287.34,524.51,265,524.51,265Z" transform="translate(-55.44 -153.48)"/><path class="cls-3" d="M571.62,247.3a22.77,22.77,0,0,0-23.18-22.54c-13.38,0-23.84,10.77-23.84,22.8,0,4.05.43,6.81,2.15,10.05-.16-2,.49-3.62,1.74-4a1.83,1.83,0,0,1,.87-.08c.65,2.53,1.33,4.27,1.33,2.86a62.64,62.64,0,0,1,.25-7c0-21.56,35.78-19.06,34.43.65a56.81,56.81,0,0,1,.12,6.24c0,1.4.64-.3,1.25-2.78a1.86,1.86,0,0,1,.7.1c1.31.44,1.94,2.22,1.69,4.32C571.38,254.59,571.62,251.46,571.62,247.3Z" transform="translate(-55.44 -153.48)"/><path class="cls-13" d="M583.61,298.36c-1.88-3.51-4.93-5.16-7.77-5.16l-8.6-1.3c1.28,10.79-13.63,44.55-18.31,47.71-4-2.72-22-37-20.68-47.71l-8.62,1.3a9.06,9.06,0,0,0-7.76,5.14c-4.36,7.23-6.9,37.46-3.75,49.47,1.39,5.34,15.46,3,15.48,1.25.08-5.15-8.86-24.55-4.21-32.41.29.42.58.84.87,1.28a12.76,12.76,0,0,0,7.17,16.21,70.62,70.62,0,0,1,1.8,8.64,91.93,91.93,0,0,1,1,16.9,31.73,31.73,0,0,0-8.65,10,33.08,33.08,0,0,0-3.56,9.92,75,75,0,0,0,60.19-.34,33.09,33.09,0,0,0-3.63-9.81,31.88,31.88,0,0,0-8.72-10h0a91,91,0,0,1,1-16.74,71.18,71.18,0,0,1,1.74-8.44,12.76,12.76,0,0,0,7-16.08c.24-.38.48-.74.73-1.1,3.46,7-3.11,25.44-3,30.49,0,1.75,12-2.35,13.52-12.38S588,305.59,583.61,298.36Z" transform="translate(-55.44 -153.48)"/><path class="cls-14" d="M519.48,322.34a12.63,12.63,0,0,1,.78-4.41c-.29-.44-.58-.86-.87-1.28-3.41,5.77.5,17.75,2.79,25.76l6.76-1.44a68.73,68.73,0,0,0-1.51-6.83A12.73,12.73,0,0,1,519.48,322.34Z" transform="translate(-55.44 -153.48)"/><path class="cls-14" d="M576.38,317.16c-.25.36-.49.72-.73,1.1a12.76,12.76,0,0,1-7,16.08,71.18,71.18,0,0,0-1.74,8.44c-.17,1.23-.32,2.45-.46,3.66h7C574.12,340.14,579.6,323.72,576.38,317.16Z" transform="translate(-55.44 -153.48)"/><path class="cls-14" d="M568.64,334.34a1.33,1.33,0,0,1,0,.19C570.29,334.1,570.54,333.53,568.64,334.34Z" transform="translate(-55.44 -153.48)"/><path class="cls-14" d="M568.6,334.36a12.52,12.52,0,0,1-1.59.45,17.84,17.84,0,0,1-9.89-2,12.54,12.54,0,0,1-2-1.8c-1.32,2.39-5,7.83-6.14,8.63-1-.66-5-6.43-6.7-8.75a12.64,12.64,0,0,1-14.8,3.33c.35,1.23.65,2.49.93,3.77.34,1.58.63,3.18.87,4.82a108.27,108.27,0,0,1,1,11.16c0,.57,23.85,4.78,35.55,2.92a97,97,0,0,1,1.08-14.08,70.82,70.82,0,0,1,1.69-8.25h0C568.57,334.48,568.58,334.42,568.6,334.36Z" transform="translate(-55.44 -153.48)"/><path class="cls-15" d="M536.78,288.67s9.65,27.6,11.7,27.6,11.25-27,11.21-27.09,2.19,1.09,2.19,1.09l-12.43,49.46-.37,1-.27-1-15.36-49.09Z" transform="translate(-55.44 -153.48)"/><circle class="cls-15" cx="474.16" cy="109.99" r="0.67"/><path class="cls-15" d="M566.6,263.48a.67.67,0,0,1-1.34,0,.67.67,0,1,1,1.34,0Z" transform="translate(-55.44 -153.48)"/><polygon class="cls-14" points="493.83 187.65 477.96 137.54 470.62 138.74 468.99 156.59 474.65 158.01 472.18 162.79 493.83 187.65"/><polygon class="cls-13" points="479.54 136.18 472.28 137.95 470.68 155.66 476.35 157.07 473.87 161.85 493.83 187.65 479.54 136.18"/><path class="cls-14" d="M549.08,340.86l0,44.87,1.54,0V339.2Z" transform="translate(-55.44 -153.48)"/><polygon class="cls-14" points="507.79 137.3 515.09 138.91 517.07 156.57 511.44 158.11 514.02 162.84 493.6 187.59 507.79 137.3"/><polygon class="cls-13" points="506.38 136.7 513.85 138.41 515.74 155.7 510.1 157.24 512.69 161.97 493.33 188.08 506.38 136.7"/><polygon class="cls-16" points="474.6 155.36 472.87 155.36 472.87 158.94 473.46 158.94 473.46 160.39 474.06 160.39 474.06 158.94 474.6 158.94 474.6 155.36"/><rect class="cls-14" x="468.17" y="160.51" width="12.6" height="7.79"/><rect class="cls-7" x="467.8" y="159.96" width="12.6" height="7.79"/><path class="cls-16" d="M533.18,316.25a.16.16,0,0,1-.15.16h-6.24a.16.16,0,0,1-.16-.16h0a.16.16,0,0,1,.16-.15H533a.15.15,0,0,1,.15.15Z" transform="translate(-55.44 -153.48)"/><path class="cls-16" d="M533.18,317a.16.16,0,0,1-.15.16h-6.24a.16.16,0,0,1-.16-.16h0a.16.16,0,0,1,.16-.15H533a.15.15,0,0,1,.15.15Z" transform="translate(-55.44 -153.48)"/><path class="cls-16" d="M533.18,317.73a.16.16,0,0,1-.15.16h-6.24a.16.16,0,0,1-.16-.16h0a.16.16,0,0,1,.16-.15H533a.15.15,0,0,1,.15.15Z" transform="translate(-55.44 -153.48)"/><path class="cls-4" d="M576.81,342.94s-.17,1.13-2.41,1a24.73,24.73,0,0,0-3.11-.08l-2.19.79s-3.56.29-3.29-.85,3.56-1.89,3.56-1.89a9.67,9.67,0,0,1,1.43-.18c.73,0,2.86.3,3.41.33A16.13,16.13,0,0,1,576.81,342.94Z" transform="translate(-55.44 -153.48)"/><path class="cls-4" d="M580.6,342s-.79,1.77-3.24.84a21.21,21.21,0,0,0-4.67-1.3,15.15,15.15,0,0,0-4.46.83c-1.46.52-3.15-1.42-1.4-2.21a24.31,24.31,0,0,1,4-1.24,4,4,0,0,1,2.31,0C573.9,339.13,580.6,342,580.6,342Z" transform="translate(-55.44 -153.48)"/><path class="cls-4" d="M567.15,337.14s3.14-1.32,3.73-1.53a4.5,4.5,0,0,1,2.59,0,14.44,14.44,0,0,1,3.92,1.63l3.48,1.91a2.41,2.41,0,0,1-3.07.76c-2.1-.93-4.64-1.78-5.37-1.66a39.68,39.68,0,0,0-3.91,1.4A3.17,3.17,0,0,1,567.15,337.14Z" transform="translate(-55.44 -153.48)"/><path class="cls-4" d="M569.37,336.77a11.89,11.89,0,0,0,1.57-1.94c.24-.47,1.8-.84,2.4-.81s2.46.16,3,.11A1.84,1.84,0,0,0,578,332.5a29.26,29.26,0,0,0-5.42-.76,18.66,18.66,0,0,0-2.81.24c-.44.08-.78.52-1.22,1s-1.44,2-2.08,2.82a3.82,3.82,0,0,1-.36.42C565.63,336.64,566.92,338.58,569.37,336.77Z" transform="translate(-55.44 -153.48)"/><path class="cls-4" d="M566.68,335.77a12.9,12.9,0,0,0-1.66,1.16c-1.11.88-5.22,4.67-6.51,5.17s-2.22,1.55-1.11,2,9.16,1,10.1.35,1.87-3.44,1.87-3.44l-.24-3.21A2.5,2.5,0,0,0,566.68,335.77Z" transform="translate(-55.44 -153.48)"/><path class="cls-17" d="M578.08,332.36l-2.14-.28a.51.51,0,0,0-.06.4c0,.23,1.7.45,1.9.35S578.08,332.36,578.08,332.36Z" transform="translate(-55.44 -153.48)"/><path class="cls-17" d="M580.89,339.12l-1.9-1a.5.5,0,0,0-.2.35c0,.23,1.43,1,1.66,1S580.89,339.12,580.89,339.12Z" transform="translate(-55.44 -153.48)"/><path class="cls-17" d="M580.63,342l-2-.84a.56.56,0,0,0-.17.37c0,.24,1.52.89,1.75.84S580.63,342,580.63,342Z" transform="translate(-55.44 -153.48)"/><path class="cls-17" d="M576.93,342.85l-1.7-.53a.4.4,0,0,0-.1.31c0,.2,1.31.61,1.49.56S576.93,342.85,576.93,342.85Z" transform="translate(-55.44 -153.48)"/><path class="cls-13" d="M510.42,350.22c2.53,1,10.95,2.9,25.63,2.06a30.9,30.9,0,0,1,1.41-11.14c-3.79-1.14-18-5.94-18-5.94S507.37,349.05,510.42,350.22Z" transform="translate(-55.44 -153.48)"/><path class="cls-4" d="M514.74,331.78c-1.66.24-2.24-1-2.1-1.28,1.3-.35,3.53-1.05,5.22-1.32a4.13,4.13,0,0,1,2.17.16,49.22,49.22,0,0,1,5.68,3.69c1.39,1.15,4.7,5.81,7.45,6.7s5.78,1.59,5.78,1.59l-1.53,5.08s-4.95-.06-5.82,0-3.06.73-4.8.14a24.43,24.43,0,0,1-5-2.79c-1.7-1.08-1.84-1.42-2.71-1.52s-2.12-.4-3.25-.47a20.11,20.11,0,0,1-2-.26c-1.63-.18-2.32-1.06-2.09-1.53.1-.21,6.7-.09,7.16-.23s1.23-.59.12-1.06a8.26,8.26,0,0,0-3-1.05,20.9,20.9,0,0,0-2.62.35,1.46,1.46,0,0,1-1.74-1.22c1.34-.4,2.92-.89,3.56-1.05a5.63,5.63,0,0,1,3.2.38c1.46.49,1.85.7,1.92.55.26-.63-2.67-1.95-3.56-2.07s-1.91.49-3.34.4c-1.11-.12-1.79-.93-1.37-1.49,1.25-.26,3.67-1.32,4.64-1.18a17.74,17.74,0,0,1,3.93,1.29c.69.35,2,1,1.89.66s-2.25-1.89-3.26-2.66S514.74,331.78,514.74,331.78Z" transform="translate(-55.44 -153.48)"/><path class="cls-15" d="M556.25,342.76l2.87-1.4a12.62,12.62,0,0,1,3.29,2.11C563.38,344.54,556.25,342.76,556.25,342.76Z" transform="translate(-55.44 -153.48)"/><path class="cls-15" d="M537.16,339.85h-1.35a17.51,17.51,0,0,0-1.48,4.45,64.59,64.59,0,0,0-.23,8.53,8.47,8.47,0,0,0,2.11.33Z" transform="translate(-55.44 -153.48)"/><path class="cls-13" d="M535,347.57a58.76,58.76,0,0,1,0,5.95s22.53,2.37,28.73,2.44c6.38.08,16.16.49,19.63-2.85s3.93-19.56,4.27-26.41c-2,20.85-13.72,17.24-15.6,17.13-1.16-.06-2.63-.29-14.1-1.49s-21-3-21-3A16.71,16.71,0,0,0,535,347.57Z" transform="translate(-55.44 -153.48)"/><path class="cls-17" d="M512.37,330.52l2.09-.53a.53.53,0,0,1,.11.39c0,.23-1.64.65-1.85.57S512.37,330.52,512.37,330.52Z" transform="translate(-55.44 -153.48)"/><path class="cls-17" d="M511.71,333.54l2.08-.57a.53.53,0,0,1,.12.38c0,.24-1.63.68-1.84.61S511.71,333.54,511.71,333.54Z" transform="translate(-55.44 -153.48)"/><path class="cls-17" d="M511.5,336.75l1.93-.53a.47.47,0,0,1,.11.36c0,.22-1.5.64-1.7.57S511.5,336.75,511.5,336.75Z" transform="translate(-55.44 -153.48)"/><path class="cls-17" d="M511.71,339.86h1.63a.4.4,0,0,1,0,.31c-.07.17-1.32.18-1.47.08A.67.67,0,0,1,511.71,339.86Z" transform="translate(-55.44 -153.48)"/><path class="cls-14" d="M546.64,362.43a1.83,1.83,0,1,1-1.83-1.82A1.83,1.83,0,0,1,546.64,362.43Z" transform="translate(-55.44 -153.48)"/><path class="cls-14" d="M546.64,373.56a1.83,1.83,0,1,1-1.83-1.83A1.83,1.83,0,0,1,546.64,373.56Z" transform="translate(-55.44 -153.48)"/><g class="cls-2"><circle class="cls-1" cx="162.78" cy="313.22" r="74.75" transform="translate(-89.35 -133.38) rotate(-6.4)"/></g><path class="cls-18" d="M190.8,295.67l-12.22-1.85c-3.71-1.29-7.14-5.22-7.14-7.6,0-.08,0-6.63,0-6.63a58.1,58.1,0,0,1-8.71,3.4,46.56,46.56,0,0,1-7.76-3.35s0,6.44,0,6.52c0,2.42-4,6.44-8,7.66l-12.2,1.85c-5.13,0-9.28,5.11-9.28,11.41s4.15,11.42,9.28,11.42H190.8c5.12,0,9.28-5.11,9.28-11.42S195.92,295.67,190.8,295.67Z" transform="translate(-55.44 -153.48)"/><path class="cls-19" d="M179.67,241.18c-2.41,7.12-10.79,10.72-18.7,8s-12.36-10.64-9.94-17.76,10.79-10.73,18.7-8S182.09,234.05,179.67,241.18Z" transform="translate(-55.44 -153.48)"/><path class="cls-19" d="M187.71,252.7c0,14-10.85,25.36-24.23,25.29-17.08-.09-24.23-11.32-24.23-25.29s10.85-25.3,24.23-25.3S187.71,238.73,187.71,252.7Z" transform="translate(-55.44 -153.48)"/><path class="cls-20" d="M154.92,277.23v4.23a46.26,46.26,0,0,0,6.84,3.94,2.26,2.26,0,0,0,1.8.06,54.31,54.31,0,0,0,7.88-4.06v-4.17Z" transform="translate(-55.44 -153.48)"/><path class="cls-18" d="M182.48,256.22a2.26,2.26,0,0,0-1.68.15c.59-5.66.92-11.37.06-12.72a22.67,22.67,0,0,0-18.09-10.44h0a22.64,22.64,0,0,0-18.09,10.44c-.86,1.34-.54,6.94,0,12.55a2,2,0,0,0-1.2,0c-1.66.56-2.25,3.28-1.31,6.09.78,2.3,2.35,3.93,3.81,4.13.23,1.59.38,2.58.38,2.58,3.43,9.09,12.48,13.57,15.43,14.81a2.32,2.32,0,0,0,1.79,0c2.85-1.19,12-5.65,15.51-14.84,0,0,.16-1,.39-2.57,1.57.11,3.38-1.6,4.24-4.13C184.72,259.52,184.14,256.79,182.48,256.22Z" transform="translate(-55.44 -153.48)"/><path class="cls-19" d="M167.49,254c.48-.34,4.46-3.46,8.79-.4,2.63,1.85-1.36-.92-3.33-.69a11.07,11.07,0,0,0-5,2C167.28,255.4,166.83,254.5,167.49,254Z" transform="translate(-55.44 -153.48)"/><path class="cls-19" d="M158.21,254c-.46-.33-4.29-3.41-8.52-.3-2.57,1.88,1.32-.94,3.23-.73a10.37,10.37,0,0,1,4.85,1.94C158.4,255.4,158.85,254.5,158.21,254Z" transform="translate(-55.44 -153.48)"/><path class="cls-7" d="M158.49,259.06c-2.1.7-2.91,1.14-4.05,1.18-1.66.07-3-.87-3-1.91s1.35-1.88,3-1.88A5.65,5.65,0,0,1,158.49,259.06Z" transform="translate(-55.44 -153.48)"/><path class="cls-21" d="M156.05,258.38a1.75,1.75,0,1,1-1.75-1.85A1.8,1.8,0,0,1,156.05,258.38Z" transform="translate(-55.44 -153.48)"/><path d="M155.55,258.2a1.19,1.19,0,1,1-1.19-1.26A1.22,1.22,0,0,1,155.55,258.2Z" transform="translate(-55.44 -153.48)"/><path class="cls-7" d="M155.74,258a.51.51,0,0,1-.56.44.52.52,0,0,1-.57-.44c0-.24.26-.43.57-.43A.51.51,0,0,1,155.74,258Z" transform="translate(-55.44 -153.48)"/><path d="M158.26,258.61c-1.36-2.43-4.42-2.53-6.42-1.79-1.75.66-2.09.31-2.16.23a4,4,0,0,0,2.81,2.75,2.09,2.09,0,0,1-1-1.07c.19-1.11,2.54-1.77,4.13-1.29,2.29.69,2.87,1.63,2.87,1.63A2.2,2.2,0,0,0,158.26,258.61Z" transform="translate(-55.44 -153.48)"/><path class="cls-7" d="M167.22,259.06c2.13.7,2.95,1.14,4.11,1.18,1.68.07,3.06-.87,3.06-1.91s-1.37-1.88-3-1.88A5.72,5.72,0,0,0,167.22,259.06Z" transform="translate(-55.44 -153.48)"/><path class="cls-21" d="M169.69,258.38a1.78,1.78,0,1,0,1.78-1.85A1.82,1.82,0,0,0,169.69,258.38Z" transform="translate(-55.44 -153.48)"/><path d="M170.2,258.2a1.21,1.21,0,1,0,1.21-1.26A1.23,1.23,0,0,0,170.2,258.2Z" transform="translate(-55.44 -153.48)"/><path class="cls-7" d="M171.86,258.13a.6.6,0,1,0,.58-.44A.53.53,0,0,0,171.86,258.13Z" transform="translate(-55.44 -153.48)"/><path d="M176.16,257.05c-.08.08-.42.43-2.2-.23-2-.74-5.13-.64-6.51,1.79a1.8,1.8,0,0,0-.23.46s.59-.94,2.91-1.63c1.61-.48,4,.18,4.19,1.28a2.13,2.13,0,0,1-1,1.08C174.46,259.38,176.11,258.26,176.16,257.05Z" transform="translate(-55.44 -153.48)"/><path class="cls-22" d="M187.71,249.19c0-12-10.85-21.79-24.23-21.79s-24.23,9.76-24.23,21.79a23.36,23.36,0,0,0,2.54,11.07c-.16-2,.48-3.62,1.73-4a2,2,0,0,1,.88-.09c.65,2.53,1.33,4.28,1.33,2.87,0-1.67.33-4.73.61-7,5.57-1.44,16.44-4.8,23.3-10.53,1.73,4.61,4.86,9.75,10.39,11.18.24,2.14.5,4.75.5,6.24s.63-.3,1.24-2.78a1.9,1.9,0,0,1,.71.09c1.31.45,1.94,2.23,1.69,4.33A20.18,20.18,0,0,0,187.71,249.19Z" transform="translate(-55.44 -153.48)"/><path class="cls-23" d="M165.52,232a2.47,2.47,0,0,1-.13,2.07c-2.89,7.13-13,13.71-18.2,16.72,5.88-2.16,17.59-7.21,22.17-14.53C171.24,233.26,168.59,232.28,165.52,232Z" transform="translate(-55.44 -153.48)"/><path class="cls-20" d="M163.9,267.75h-2.27a1.77,1.77,0,0,1-1.64-1.26,2.08,2.08,0,0,0-.13.71c0,1.09,1.33,1.44,2.31,1.44h1.2c1,0,2.3-.35,2.3-1.44a2.08,2.08,0,0,0-.12-.71A1.78,1.78,0,0,1,163.9,267.75Z" transform="translate(-55.44 -153.48)"/><path class="cls-20" d="M142.38,258.27c0-.23.42-1.24,1-1.07.84.27,1.37,1.91,1.73,3.55s.19,2.84,0,2.4a24.24,24.24,0,0,0-1.51-4.48C142.91,257.42,142.51,260,142.38,258.27Z" transform="translate(-55.44 -153.48)"/><path class="cls-20" d="M183.63,258.27c0-.23-.42-1.24-1-1.07-.85.27-1.38,1.91-1.73,3.55s-.19,2.84,0,2.4a23.23,23.23,0,0,1,1.5-4.48C183.1,257.42,183.5,260,183.63,258.27Z" transform="translate(-55.44 -153.48)"/><path class="cls-24" d="M156.12,266.19c-.44,1.4-2.62,2-4.88,1.25s-3.72-2.42-3.27-3.82,2.62-2,4.87-1.25S156.56,264.79,156.12,266.19Z" transform="translate(-55.44 -153.48)"/><path class="cls-24" d="M169.27,266.19c.44,1.4,2.62,2,4.87,1.25s3.72-2.42,3.28-3.82-2.63-2-4.88-1.25S168.82,264.79,169.27,266.19Z" transform="translate(-55.44 -153.48)"/><path class="cls-25" d="M134.57,368.91h0C134.64,369.05,134.65,369.06,134.57,368.91Z" transform="translate(-55.44 -153.48)"/><path class="cls-25" d="M128.42,373.33h0C128.5,373.43,128.49,373.42,128.42,373.33Z" transform="translate(-55.44 -153.48)"/><path class="cls-25" d="M202.36,344.1c.06,3.82-8.71,19.74-11.2,24.5l6.21,4.51c6.38-7.36,15.47-21.67,16.48-31,1.06-9.67-10.33-33-15.3-41.3-1.59-3-4.4-5.15-7.75-5.15l-8.58-1.3c1.2,10.07-10.72,40.49-18.48,47.55-1.84-1.42-21.73-36.54-20.4-47.55l-8.6,1.3c-3.36,0-6.15,2.19-7.74,5.12-3.26,5.41-15.12,28.86-15.39,39.28-.24,10.69,10.31,25,16.81,33.26l6.15-4.41c-2.15-3.9-10.52-19.58-11.27-24h0c-.93-5.07,8.59-21.5,11.2-25.9.3.41.59.84.87,1.28a12.72,12.72,0,0,0,7.15,16.17,69.52,69.52,0,0,1,1.8,8.62,91.3,91.3,0,0,1,1,16.85,31.92,31.92,0,0,0-8.62,10,34,34,0,0,0-3.55,9.9,74.88,74.88,0,0,0,60-.34,32.94,32.94,0,0,0-3.61-9.79,31.84,31.84,0,0,0-8.71-9.92h0a91.4,91.4,0,0,1,1-16.69,67.23,67.23,0,0,1,1.74-8.43,12.73,12.73,0,0,0,7-16c.24-.37.48-.74.73-1.1C194.22,324.44,202.27,338.47,202.36,344.1Z" transform="translate(-55.44 -153.48)"/><path class="cls-26" d="M157.42,273.83c1.52,1.59,2.82,2.78,5.35,2.78a6.68,6.68,0,0,0,5.35-2.75,30,30,0,0,1-5.29.45A29.17,29.17,0,0,1,157.42,273.83Z" transform="translate(-55.44 -153.48)"/><path class="cls-27" d="M162.77,273.11c-1.68-1.15-2.53.29-5.81.4a1.76,1.76,0,0,0,0,.31,34.62,34.62,0,0,0,11.49,0,1.26,1.26,0,0,0,0-.33C165.27,273.23,164.28,272.09,162.77,273.11Z" transform="translate(-55.44 -153.48)"/><path class="cls-7" d="M163.74,341.92c7.34-6.68,17.37-32.43,18.49-43.67-1,9-9.34,16.08-19.45,16.08-8.4,0-15.55-4.86-18.33-11.68C148.59,316.2,161.8,340.43,163.74,341.92Z" transform="translate(-55.44 -153.48)"/><path class="cls-22" d="M185.87,251.08c2,8.63-1.73,18.06-6.9,26.56-4.47,7.33-2.13,12.08-.27,12.48s-7.7,1.19-1.73-12.75,7.84-16.2,6.51-25.49A36.9,36.9,0,0,0,180,241.39C184.14,244,185.87,251.08,185.87,251.08Z" transform="translate(-55.44 -153.48)"/><path class="cls-28" d="M147.69,337.66a12.55,12.55,0,0,1-5.17-1.11c.34,1.24.65,2.51.93,3.8a11.41,11.41,0,0,0,4.24.84c6,0,11-4.75,12.32-11.12h-.74A12.65,12.65,0,0,1,147.69,337.66Z" transform="translate(-55.44 -153.48)"/><path class="cls-28" d="M179.38,337.46a12.66,12.66,0,0,1-11.58-7.59h-.72c1.37,6.28,6.35,10.94,12.3,10.94a11.27,11.27,0,0,0,3.34-.52c.26-1.21.54-2.4.86-3.56A12.74,12.74,0,0,1,179.38,337.46Z" transform="translate(-55.44 -153.48)"/><path class="cls-18" d="M139.06,372.88a4.29,4.29,0,0,0-5.29,0L132.34,374a5,5,0,0,0-1.33,6.19h0c4.17-1,7.35-3.76,8.11-7.23Z" transform="translate(-55.44 -153.48)"/><path class="cls-18" d="M193.29,373.56l-1.43-1.11a4.33,4.33,0,0,0-6.07.77c1.09,3.34,4.49,5.95,8.75,6.66A5,5,0,0,0,193.29,373.56Z" transform="translate(-55.44 -153.48)"/><path class="cls-29" d="M142.24,372a9,9,0,0,0-2.39-1.17c-.92,4.28-4.81,7.73-9.89,8.93,0,.23,0,.45.08.67,1,.48,2,.94,3,1.37C137.78,380,141.31,376.37,142.24,372Z" transform="translate(-55.44 -153.48)"/><path class="cls-29" d="M185.53,370.87a9.66,9.66,0,0,0-2.39,1.17c.94,4.38,4.48,8,9.28,9.83,1-.43,2-.87,2.91-1.34,0-.24.07-.48.09-.73C190.34,378.61,186.46,375.15,185.53,370.87Z" transform="translate(-55.44 -153.48)"/><polygon class="cls-29" points="93.96 138.68 86.7 140.45 85.11 158.16 90.78 159.57 88.3 164.35 108.66 190.03 93.96 138.68"/><polygon class="cls-29" points="120.7 138.68 127.95 140.45 129.55 158.16 123.88 159.57 126.36 164.35 105.65 197.11 120.7 138.68"/><path class="cls-7" d="M163,303.68c6,0,10.88-5.37,11.6-12.26a13,13,0,0,1-1-1c-.33,6.77-5,12.16-10.61,12.16s-10.29-5.41-10.6-12.2c-.31.31-.65.6-1,.89C152.1,298.26,157.05,303.68,163,303.68Z" transform="translate(-55.44 -153.48)"/><path class="cls-29" d="M167.28,358.6a1.73,1.73,0,1,1-1.72-1.72A1.72,1.72,0,0,1,167.28,358.6Z" transform="translate(-55.44 -153.48)"/><path class="cls-29" d="M167.28,367.1a1.73,1.73,0,1,1-1.72-1.73A1.73,1.73,0,0,1,167.28,367.1Z" transform="translate(-55.44 -153.48)"/><path class="cls-7" d="M145.86,265.83A.84.84,0,1,1,145,265,.84.84,0,0,1,145.86,265.83Z" transform="translate(-55.44 -153.48)"/><circle class="cls-7" cx="125.17" cy="112.35" r="0.84"/><path class="cls-7" d="M136.05,371.83c-.35-.73-.86-1.73-1.48-2.92l-6.16,4.42c.77.88,2.27,2.52,2.32,2.57l5.32-4.07Z" transform="translate(-55.44 -153.48)"/><path class="cls-7" d="M197.37,373.11l-6.21-4.51c-.58,1.11-1.07,2.08-1.44,2.83L195,375.7C195.62,375.08,196.58,374,197.37,373.11Z" transform="translate(-55.44 -153.48)"/><g class="cls-2"><circle class="cls-1" cx="931.96" cy="311.31" r="74.75" transform="translate(-103.63 226.86) rotate(-22.5)"/></g><path class="cls-18" d="M975.56,300.61a10.69,10.69,0,0,0-10.15-7.35l-16.12-1.88c-3-1.17-5.63-4.05-6.22-6.19l-.18-8.16c-1.8,1.28-3.5,2.15-5.54,3.46a19.17,19.17,0,0,1-5.9,0,53.18,53.18,0,0,1-9.62-6.74l-.36,11.71c-.76,2.05-3.55,4.69-6.46,5.88l-16,2a10.69,10.69,0,0,0-10.54,8.89l-.09.58,0,.34c0,.08,0,.15,0,.22L904,316.14l5.76,18.58h45l6.22-20.07h1.65Z" transform="translate(-55.44 -153.48)"/><rect class="cls-30" x="862.57" y="142.66" width="27.09" height="49.92"/><path class="cls-13" d="M975.41,300.21a10.68,10.68,0,0,0-10-6.95l-16.12-1.88a30.36,30.36,0,0,1-3.42-1l-13.39,52.06-13.65-53.61A13.84,13.84,0,0,1,915,291.3l-16,2a10.66,10.66,0,0,0-8.14,3.77l0,0a7,7,0,0,0-.58.83,10.46,10.46,0,0,0-1.06,1.91c-4,7.76-11.48,29.42-11.7,38.85-.27,11.05,13.74,31.32,19.32,36.42l13.92-1-7.93,4.79-.08,1.38a74.91,74.91,0,0,0,59-.23l-.29-5c1.81,1.25,4.26,1.37,6.83-1.64,5.58-5.1,19.39-24.65,19.12-35.69C987.14,328.29,979.43,308.21,975.41,300.21ZM903.74,362.6a204.7,204.7,0,0,1-10.3-21c-1.87-4.59,3.24-15.5,8.47-23.46l1.84,44.35Zm57,1-.13-2.16,1.73-42.2c4.5,7.77,9.25,17.46,9.32,22.19C971.75,344.87,964.88,355.61,960.77,363.59Z" transform="translate(-55.44 -153.48)"/><path class="cls-31" d="M956.29,310.26l-1.11-18.2-5.4-.62a12.57,12.57,0,0,1-2.29-1.21l-2.82,3.82-12.26,48.17-12.3-48.34-2.82-3.83A13,13,0,0,1,915,291.3l-5,.61-1,18.18,6.91,1.23-1.42,7.09,17,32.56-.31,4.26,19.65-36.65-1.42-7.08Z" transform="translate(-55.44 -153.48)"/><polygon class="cls-32" points="871.83 168.51 876.98 188.74 881.28 171.83 878.67 151.17 881.83 146.61 879.98 141.6 873.55 141.42 871.89 146.88 874.8 151.08 871.83 168.51"/><polygon class="cls-7" points="865.62 131.64 876.95 141.38 868.63 149.7 860.49 137.13 865.62 131.64"/><path class="cls-18" d="M913.17,376.27s0,0,0-.06c-2.21-3.33-1.58-2.39-2.71-4.08a4.5,4.5,0,0,0-6.25-1.27c-5.05,3.35-4.18,2.75-4.61,3.09a9.93,9.93,0,0,0-.94,4.3,71.27,71.27,0,0,0,7.77,3.34A13,13,0,0,0,913.17,376.27Z" transform="translate(-55.44 -153.48)"/><polygon class="cls-7" points="888.28 131.64 876.95 141.38 885.27 149.7 893.42 137.13 888.28 131.64"/><rect class="cls-7" x="896.68" y="370.84" width="11.64" height="2.92" transform="translate(-102 447.72) rotate(-35.98)"/><path class="cls-31" d="M917.59,366.61l-2.7,0a12.87,12.87,0,0,1-1.72,9.63,13,13,0,0,1-6.74,5.32c.75.27,2.24.79,3.68,1.23a15.58,15.58,0,0,0,7.73-13.65A15.42,15.42,0,0,0,917.59,366.61Z" transform="translate(-55.44 -153.48)"/><path class="cls-18" d="M964.73,373.27l-4.34-2.8a4.52,4.52,0,0,0-6.25,1.35l-2.65,4.12s0,0,0,.05a13,13,0,0,0,6.89,5.27,73.74,73.74,0,0,0,7.65-3.39C966,376.45,965.56,373.81,964.73,373.27Z" transform="translate(-55.44 -153.48)"/><path class="cls-31" d="M951.49,376a12.82,12.82,0,0,1-1.84-9.6H947a15.6,15.6,0,0,0,7.75,16.15c1.52-.48,2.6-.87,3.68-1.28A13,13,0,0,1,951.49,376Z" transform="translate(-55.44 -153.48)"/><rect class="cls-7" x="961.45" y="365.74" width="2.92" height="11.64" transform="translate(41.11 779.03) rotate(-54.02)"/><path class="cls-20" d="M931.58,278.36a57.49,57.49,0,0,1-9.93-4.27v5.25c1.62,1,4,2.6,5.7,3.64a6.9,6.9,0,0,0,2.42.68h6.16a6.6,6.6,0,0,0,2.43-.66c1.35-.9,2.9-2.15,4.59-3.26V274A74.72,74.72,0,0,1,931.58,278.36Z" transform="translate(-55.44 -153.48)"/><path class="cls-18" d="M952.73,251.36a2.4,2.4,0,0,0-1.72.11c.23-6.63.17-12.57-.67-13.89-4.67-7.32-10.15-10.5-18.21-10.8h0c-8.07.3-12.94,3.48-17.6,10.8-.87,1.36-1,7.56-.89,14.39a2.77,2.77,0,0,0-2.55-.62c-1.78.6-2.4,3.52-1.39,6.51.87,2.58,2.67,4.38,4.29,4.44.26,5.82.57,10.35.57,10.35,5.44,3.74,9.06,6.26,12.21,8.12a5.11,5.11,0,0,0,1.94.55h6.53a8.18,8.18,0,0,0,2.23-.6c3.16-1.86,6.78-4.42,12.24-8.07,0,0,.4-4.59.77-10.47,1.42-.45,2.87-2.08,3.63-4.31C955.12,254.88,954.5,252,952.73,251.36Z" transform="translate(-55.44 -153.48)"/><path class="cls-19" d="M936.69,249.08c.56-.31,7.34-3,9.4.56,1.72,3-1.46,0-3.58,0a30.07,30.07,0,0,0-5.44.41C936.22,250.21,935.94,249.49,936.69,249.08Z" transform="translate(-55.44 -153.48)"/><path class="cls-19" d="M926.78,249.16c-.53-.3-7.14-2.65-9.1.53-1.79,2.9,1.42,0,3.48,0a47.42,47.42,0,0,1,5.24.44C927.23,250.26,927.5,249.58,926.78,249.16Z" transform="translate(-55.44 -153.48)"/><path class="cls-7" d="M927.08,254.39a11.87,11.87,0,0,1-4.35.82c-1.74,0-3.34-.59-3.34-1.7s1.57-1.91,3.35-1.91A6,6,0,0,1,927.08,254.39Z" transform="translate(-55.44 -153.48)"/><path class="cls-21" d="M924.51,253.42a1.69,1.69,0,1,1-1.68-1.78A1.73,1.73,0,0,1,924.51,253.42Z" transform="translate(-55.44 -153.48)"/><path d="M924,253.43a1.08,1.08,0,1,1-1.08-1.14A1.11,1.11,0,0,1,924,253.43Z" transform="translate(-55.44 -153.48)"/><path class="cls-7" d="M924.55,253.45a.48.48,0,0,1-.54.42c-.3,0-.55-.18-.55-.42A.5.5,0,0,1,924,253,.49.49,0,0,1,924.55,253.45Z" transform="translate(-55.44 -153.48)"/><path class="cls-20" d="M927.08,254.4s-.62-1-3.06-1.74c-1.76-.53-4.39.24-4.44,1.49-.73-.54-.75-1.52,1.12-2.22a5.11,5.11,0,0,1,6.14,2A1.59,1.59,0,0,1,927.08,254.4Z" transform="translate(-55.44 -153.48)"/><path class="cls-7" d="M936.61,254.39a10.3,10.3,0,0,0,4.28.8c1.76,0,3.35-.48,3.35-1.59s-1.51-2-3.29-2A6,6,0,0,0,936.61,254.39Z" transform="translate(-55.44 -153.48)"/><path class="cls-21" d="M939.16,253.38a1.69,1.69,0,1,0,1.68-1.79A1.72,1.72,0,0,0,939.16,253.38Z" transform="translate(-55.44 -153.48)"/><path d="M939.76,253.38a1.08,1.08,0,1,0,1.08-1.14A1.12,1.12,0,0,0,939.76,253.38Z" transform="translate(-55.44 -153.48)"/><path class="cls-7" d="M941.44,253.27a.5.5,0,0,0,.55.42.49.49,0,0,0,.54-.42.48.48,0,0,0-.54-.42C941.69,252.85,941.44,253,941.44,253.27Z" transform="translate(-55.44 -153.48)"/><path class="cls-20" d="M936.61,254.4s.62-1,3.07-1.74c1.75-.53,4.38.24,4.43,1.49.73-.54.66-1.57-1.21-2.27a5,5,0,0,0-6,2A1.59,1.59,0,0,0,936.61,254.4Z" transform="translate(-55.44 -153.48)"/><path class="cls-20" d="M933.13,264.15h-2.81a2.21,2.21,0,0,1-2-1.56,2.49,2.49,0,0,0-.15.87c0,1.35,1.64,1.78,2.85,1.78h1.49c1.22,0,2.86-.43,2.86-1.78a2.74,2.74,0,0,0-.15-.87A2.22,2.22,0,0,1,933.13,264.15Z" transform="translate(-55.44 -153.48)"/><path class="cls-20" d="M909.86,253.54c0-.24.46-1.32,1-1.14.9.29,1.48,2,1.86,3.8s.2,3,0,2.56a26.2,26.2,0,0,0-1.62-4.79C910.43,252.64,910,255.44,909.86,253.54Z" transform="translate(-55.44 -153.48)"/><path class="cls-20" d="M954,253.54c0-.24-.45-1.32-1-1.14-.91.29-1.47,2-1.85,3.8s-.2,3,0,2.56a25.16,25.16,0,0,1,1.61-4.79C953.39,252.64,953.82,255.44,954,253.54Z" transform="translate(-55.44 -153.48)"/><path class="cls-19" d="M946.55,227.76c-3-5.3-20.3-3-25.8-1.52s-9.11,4.56-8.92,9.3c.16,4.1.19,13.3.19,15.72a3.14,3.14,0,0,1,1.39.56l1.07,5,1.14-7.78s-2.27-15.18,12.53-12.52c-2.09,1.14-5.88,5.12-5.88,5.12s8.72-2.09,12.14-3.41,0,2.84,0,2.84,6.64-2.46,8.73-3.22,4.17-.19,4.55,3.41S949,258.5,949,258.5l2.38-7.15a2.75,2.75,0,0,1,.56-.1c.07-1.44.17-3.24.28-5.46C953.38,224.15,948.83,231.75,946.55,227.76Z" transform="translate(-55.44 -153.48)"/><path class="cls-33" d="M926.76,270.29c.13.67,1.2,2.27,1.82,2.27h6.23c.63,0,1.7-1.6,1.82-2.27Z" transform="translate(-55.44 -153.48)"/><path class="cls-34" d="M934.61,270.59c-1.32-.16-5.68-.09-6.35-.06-1.74.08-2.76-.89-2.69-1.08s.32-.23.52.07,1.31.17,1.88.05c2.88-.62,2.14.07,3.54.1s.87-.65,3.36-.08a5.43,5.43,0,0,0,2.43.26c.28-.14.51-.3.59,0S936.72,270.85,934.61,270.59Z" transform="translate(-55.44 -153.48)"/><path class="cls-1" d="M227,391.92c-2.77-2.42-2.06-4.82,1.58-5.33l53.36-7.5a5.64,5.64,0,0,1,6.6,5.76l-.19,53.88c0,3.68-2.29,4.71-5.06,2.3Z" transform="translate(-55.44 -153.48)"/><path class="cls-1" d="M130.61,463.34c30,7.11,59.12,5.3,82.15-2.19,30.52-9.07,59.12-32.16,63.17-36.58a19.88,19.88,0,0,0-25.32-30.2c-1.64,1.05-20.84,18.19-43,26.48a114.58,114.58,0,0,1-76.55,1.26C99.83,411.38,90.9,396,82.62,392.7a19.88,19.88,0,0,0-21.13,32.84C79.41,443.55,109.84,459.19,130.61,463.34Z" transform="translate(-55.44 -153.48)"/><path class="cls-35" d="M867.69,229.38c2.77,2.42,2.06,4.82-1.58,5.33l-53.36,7.5a5.63,5.63,0,0,1-6.6-5.75l.19-53.89c0-3.68,2.29-4.71,5.06-2.29Z" transform="translate(-55.44 -153.48)"/><path class="cls-35" d="M964.1,158c-30-7.1-59.12-5.29-82.14,2.19-30.53,9.08-59.13,32.17-63.17,36.59a19.88,19.88,0,0,0,25.31,30.2c1.64-1.05,20.84-18.19,43-26.49a114.57,114.57,0,0,1,76.55-1.25c31.24,10.73,40.17,26.08,48.45,29.41a19.88,19.88,0,0,0,21.13-32.84C1015.3,177.76,984.87,162.12,964.1,158Z" transform="translate(-55.44 -153.48)"/><path class="cls-35" d="M609.39,390.23c-3.89-3.89-2.58-7.16,2.92-7.27l42.45-.81a9.56,9.56,0,0,1,9.8,9.8l-.82,42.44c-.1,5.5-3.37,6.82-7.26,2.93Z" transform="translate(-55.44 -153.48)"/><path class="cls-35" d="M351.45,274.2c-6.26-6.5-10.85-11.29-12.08-12.63C282,199,257.34,175.91,215,161.36c-52.47-18-117.47-1.48-152.21,34.06a19.85,19.85,0,1,0,26.61,29.43c31.41-30.51,84.35-40.25,124-21.61,27.9,13.13,44.48,27.89,99.4,87.91L323,301.76A37.55,37.55,0,0,1,351.45,274.2Z" transform="translate(-55.44 -153.48)"/><path class="cls-35" d="M654.71,389.53a20,20,0,0,0-22-3.93c-9.32,4.19-23.62,28.95-71.59,36.74C508.55,430.87,461.84,391.93,407,332c-1.14-1.24-5.42-5.72-11.33-11.85A37.53,37.53,0,0,1,367,347.58l13.76,14.31C436.54,420,484.64,469.19,564.07,462c47.36-4.31,90.11-39,95-50.47A20,20,0,0,0,654.71,389.53Z" transform="translate(-55.44 -153.48)"/><path id="path" d="M750.52,285.36a4.61,4.61,0,0,1,3.81,1.69,5.45,5.45,0,0,1,1.48,3.81v36a5.11,5.11,0,0,1-1.48,3.81,5.29,5.29,0,0,1-3.81,1.69H733.6a4.58,4.58,0,0,1-3.81-1.69,5.45,5.45,0,0,1-1.48-3.81v-36a5,5,0,0,1,1.48-3.8,5.3,5.3,0,0,1,3.81-1.7Zm1.06,36V291.71h-19v29.62ZM739.73,329a3.65,3.65,0,1,0-.84-2.33,3.8,3.8,0,0,0,.84,2.33Z" transform="translate(-55.44 -153.48)"/><path id="path-2" data-name="path" d="M380.48,288.36a4.19,4.19,0,0,1,4.1,4.09V317a4.2,4.2,0,0,1-4.1,4.1H366.14v4.1h4.1v4.1h-16.4v-4.1h4.1v-4.1H343.6a4.21,4.21,0,0,1-4.1-4.1V292.45a4.2,4.2,0,0,1,4.1-4.09Zm0,28.68V292.45H343.6V317Z" transform="translate(-55.44 -153.48)"/></svg>